# xmcd
#
# Track frame offsets:
#	150
#	881
#	14464
#	29002
#	44268
#	54089
#	70751
#	89146
#	98958
#	111054
#	130079
#	147322
#	168404
#	180913
#	200097
#	217288
#	228463
#	243550
#	256000
#	268491
#	283169
#	300335
#	305907
#	308580
#	311089
#	317293
#	321363
#	322078
#	322882
#	323492
#	324662
#	325439
#	326597
#	327356
#	328346
#	329156
#	329794
#	338599
#	347305
#
# Disc length: 4749 seconds
#
# Revision: 1
# Processed by: cddbd v1.5.2PL0 Copyright (c) Steve Scherf et al.
# Submitted via: audiograbber 1.83.01
#
DISCID=53128b27
DTITLE=Country Hotdisc - Country Hotdisc 108
DYEAR=2007
DGENRE=Country
TTITLE0=Intro  - Intro 
TTITLE1=Chilli Gold - Chilli Gold
TTITLE2=First Date - Chilli Gold
TTITLE3=Every Other Day  - Victoria Shaw
TTITLE4=Truck Driver큦 Queen  - Bryan Chalker and Legacy
TTITLE5=Noctumal  - Clive John
TTITLE6=See If I Care - Charlie Allen 
TTITLE7=Love Of My Life - Everlys Experience
TTITLE8=Our Heart Are Holding Hands  - Troy Cook Jr and Tracy K Houston
TTITLE9=Small Packages  - Bobby Smith
TTITLE10=Silen Night  - Dolly Parton and Billy Dean
TTITLE11=America Where Are You  - Dave Aspen
TTITLE12=Rocking Christmas Medley  - Pam Tillis
TTITLE13=A Soldier큦 Story - Richard Frankz
TTITLE14=Cold Beer - Tracy Lawrence
TTITLE15=Who Kissing My Baby At Christmas  - David Wright
TTITLE16=The Reason For The Seasons  - Ivan D
TTITLE17=Hark The Hearald Angels Sing  - Turner West
TTITLE18=Silent Night  - George Hamiltoin Iv
TTITLE19=That Christmas Kind Of Feelings  - Sprockett
TTITLE20=O Holy Night  - Wes Davis
TTITLE21=Christmas Id큦  - Troy Cook Jr
TTITLE22=Christmas Id큦  - Donna Frost
TTITLE23=Christmas Id큦  - Martina Mcbride
TTITLE24=Christmas Id큦  - The Murphys
TTITLE25=Christmas Id큦  - Lucie Diamond
TTITLE26=Christmas Id큦  - Lucie Diamond
TTITLE27=Christmas Id큦  - Gene Watson
TTITLE28=Christmas Id큦  - Chilli Gold
TTITLE29=Christmas Id큦  - George Hamilton Iv
TTITLE30=Christmas Id큦  - The Proclaimers
TTITLE31=Christmas Id큦  - Narvel Felts
TTITLE32=Christmas Id큦  - Jackie Storrar
TTITLE33=Christmas Id큦  - Slim Whitman
TTITLE34=Christmas Id큦  - Troy Cook Jr
TTITLE35=Christmas Id큦  - Bryan White
TTITLE36=Best British  - Best British Album
TTITLE37=Best British  - Best British Single Track
TTITLE38=Best British  - Best British Song
EXTD=
EXTT0=
EXTT1=
EXTT2=
EXTT3=
EXTT4=
EXTT5=
EXTT6=
EXTT7=
EXTT8=
EXTT9=
EXTT10=
EXTT11=
EXTT12=
EXTT13=
EXTT14=
EXTT15=
EXTT16=
EXTT17=
EXTT18=
EXTT19=
EXTT20=
EXTT21=
EXTT22=
EXTT23=
EXTT24=
EXTT25=
EXTT26=
EXTT27=
EXTT28=
EXTT29=
EXTT30=
EXTT31=
EXTT32=
EXTT33=
EXTT34=
EXTT35=
EXTT36=
EXTT37=
EXTT38=
PLAYORDER=
